<?xml version="1.0" encoding="utf-8"?>
<!-- Generator: Adobe Illustrator 24.2.0, SVG Export Plug-In . SVG Version: 6.00 Build 0)  -->
<svg version="1.1" id="Layer_1" xmlns="http://www.w3.org/2000/svg" xmlns:xlink="http://www.w3.org/1999/xlink" x="0px" y="0px"
	 viewBox="0 0 612 792" style="enable-background:new 0 0 612 792;" xml:space="preserve">
<style type="text/css">
	.st0{fill:#040F10;}
	.st1{fill:#EEC809;}
</style>
<g>
	<path class="st0" d="M243.09,469.55c1.52,1.45,2.92,2.8,4.34,4.14c12.59,11.93,27.76,18.79,44.49,22.6
		c9.66,2.2,19.41,3.35,29.32,3.04c17.67-0.57,33.85-5.85,48.74-15.26c5.34-3.38,10.38-7.16,15.12-11.35
		c1.18-1.04,2.43-2.01,3.61-3.06c10.16-9.06,29.15-10.07,40.81,2.81c7.65,8.45,14.94,17.17,21.92,26.17
		c3.02,3.89,5.89,7.75,7.6,12.43c2.53,6.96,1.73,13.68-1.02,20.31c-2.52,6.06-7.06,10.54-11.89,14.76
		c-8.97,7.84-18.55,14.83-28.71,21.07c-4.57,2.81-9.33,5.19-14.08,7.62c-3.27,1.67-6.39,3.68-9.92,4.78
		c-2.79,0.87-5.45,2.1-8.12,3.19c-3.07,1.24-6.23,2.22-9.35,3.24c-13.63,4.46-27.63,7.21-41.92,8.55
		c-22.5,2.11-44.66,0.21-66.58-5.17c-2.37-0.58-4.89-1-7.16-1.7c-5.01-1.55-10.13-2.8-14.96-4.91c-3.59-1.57-7.25-2.96-10.86-4.49
		c-1.13-0.48-2.29-0.88-3.25-1.82c-0.65-0.64-1.74-0.84-2.65-1.19c-0.63-0.24-1.38-0.27-1.94-0.62c-4.91-3.05-10.46-5.02-15.07-8.53
		c-3.12-2.37-6.66-4.05-9.72-6.58c-3.85-3.19-8.37-5.62-12.12-8.97c-2.73-2.44-5.65-4.65-8.19-7.33c-2.48-2.63-5.59-4.64-8.02-7.38
		c-3.17-3.58-6.2-7.29-9.55-10.69c-4.13-4.2-7.67-8.85-11.04-13.63c-4.68-6.62-9.28-13.29-13.19-20.41
		c-3.94-7.18-7.43-14.57-10.52-22.15c-2.49-6.12-4.52-12.42-6.32-18.75c-0.65-2.28-0.9-4.8-1.5-7.16
		c-1.95-7.77-4.12-22.52-4.7-30.71c-0.88-12.52-0.57-25.01,0.66-37.48c0.57-5.78,1.48-11.52,2.54-17.24
		c0.67-3.65,1.53-7.26,2.28-10.89c1.23-5.91,3.23-11.57,5.09-17.29c1.45-4.45,3.11-8.84,5.06-13.06c2.52-5.45,4.99-10.93,8.02-16.17
		c2.9-5.02,5.8-10.03,8.96-14.89c4.15-6.37,8.67-12.5,13.75-18.15c3.53-3.92,6.75-8.14,10.89-11.51c1.81-1.47,3.18-3.48,4.92-5.07
		c9.57-8.78,19.82-16.64,30.92-23.46c7.59-4.67,15.39-8.89,23.49-12.52c13.39-6,27.29-10.48,41.68-13.56
		c15.69-3.36,31.49-5.03,47.53-4.38c8.87,0.36,17.67,1.34,26.39,3.11c17.13,3.47,33.42,9.29,48.77,17.64
		c9.61,5.22,18.65,11.32,27.26,18.1c8.54,6.72,16.34,14.21,23.67,22.16c9.75,10.58,18.26,22.12,25.6,34.53
		c8.46,14.3,14.83,29.47,19.63,45.34c1.49,4.93,2.58,9.9,1.71,15.05c-1.38,8.22-5.07,15.08-12.01,20.03
		c-2.89,2.06-6.09,3.37-9.29,4.82c-3.39,1.54-6.88,2.89-10.32,4.26c-3.54,1.41-7.13,2.83-10.73,4.14c-3,1.09-5.95,2.59-8.94,3.7
		c-6.67,2.46-13.25,5.15-19.86,7.76c-38.54,15.23-77.07,30.49-115.6,45.75c-20.68,8.19-41.36,16.42-62.03,24.63
		C245.56,468.19,244.36,468.58,243.09,469.55z M317.24,227.33c-8.19,0-16.33,0.71-24.45,1.82c-8,1.1-15.99,2.21-23.75,4.63
		c-22.34,6.98-42.95,17.19-61.12,32.07c-20.2,16.54-35.21,37.06-46.26,60.58c-9.15,19.48-14.47,39.93-15.4,61.47
		c-0.73,16.85,1.21,33.42,5.38,49.75c7.7,30.12,22.45,56.26,44.69,77.98c27.83,27.18,61.08,43.46,99.82,48.22
		c15.86,1.95,31.72,1.51,47.47-0.96c19.98-3.13,38.62-10.14,56.02-20.44c10.04-5.95,19.39-12.84,28.15-20.53
		c1.97-1.73,2-2.12,0.39-4.11c-1.18-1.46-2.43-2.85-3.63-4.29c-4.79-5.76-9.58-11.52-14.36-17.29c-2.46-2.96-2.87-2.95-5.81-0.25
		c-21.93,20.17-47.95,31-77.52,33.31c-16.76,1.31-33.28-0.73-49.44-5.31c-35.91-10.17-61.78-32.51-78.96-65.31
		c-1.58-3.01-1.24-3.88,1.87-5.13c3.65-1.47,7.33-2.88,11-4.33c74.53-29.54,149.06-59.09,223.59-88.63
		c8.7-3.45,17.41-6.85,26.11-10.3c4.08-1.62,4.46-2.48,3.09-6.72c-0.58-1.78-1.2-3.54-1.83-5.3
		c-12.86-35.52-34.29-64.48-65.72-85.83C372.62,236.13,346.43,227.02,317.24,227.33z"/>
	<path class="st1" d="M317.24,227.33c29.19-0.31,55.38,8.8,79.33,25.08c31.43,21.35,52.86,50.31,65.72,85.83
		c0.64,1.76,1.26,3.52,1.83,5.3c1.37,4.25,0.99,5.11-3.09,6.72c-8.7,3.45-17.41,6.86-26.11,10.3
		c-74.53,29.54-149.06,59.09-223.59,88.63c-3.66,1.45-7.34,2.86-11,4.33c-3.11,1.26-3.45,2.13-1.87,5.13
		c17.19,32.79,43.05,55.14,78.96,65.31c16.17,4.58,32.68,6.61,49.44,5.31c29.57-2.31,55.58-13.13,77.52-33.31
		c2.93-2.7,3.34-2.71,5.81,0.25c4.79,5.76,9.57,11.53,14.36,17.29c1.2,1.44,2.45,2.84,3.63,4.29c1.61,1.99,1.57,2.38-0.39,4.11
		c-8.76,7.7-18.11,14.59-28.15,20.53c-17.4,10.3-36.04,17.31-56.02,20.44c-15.74,2.47-31.6,2.91-47.47,0.96
		c-38.74-4.75-71.99-21.04-99.82-48.22c-22.24-21.71-36.99-47.86-44.69-77.98c-4.17-16.33-6.11-32.9-5.38-49.75
		c0.93-21.54,6.25-41.99,15.4-61.47c11.05-23.52,26.06-44.03,46.26-60.58c18.17-14.88,38.79-25.09,61.12-32.07
		c7.76-2.42,15.74-3.53,23.75-4.63C300.91,228.04,309.05,227.33,317.24,227.33z M183.44,392.57c-0.02,8.22,0.94,16.34,1.97,24.45
		c0.07,0.58,0.21,1.17,0.41,1.72c0.58,1.6,1.28,2.02,2.93,1.58c1.14-0.3,2.24-0.76,3.33-1.2c74.4-29.87,148.92-59.39,223.46-88.91
		c4.13-1.64,4.24-1.92,2.01-5.93c-7.41-13.3-16.78-25.03-28.34-34.96c-19.48-16.73-42-26.16-67.69-27.68
		c-14.1-0.83-27.93,1.04-41.5,4.89c-26,7.38-47.5,21.8-65.07,42.11C194.13,332.72,183.93,360.85,183.44,392.57z"/>
	<path class="st0" d="M183.44,392.57c0.49-31.71,10.69-59.85,31.5-83.91c17.57-20.31,39.07-34.74,65.07-42.11
		c13.57-3.85,27.4-5.73,41.5-4.89c25.69,1.52,48.21,10.95,67.69,27.68c11.56,9.93,20.93,21.66,28.34,34.96
		c2.23,4,2.12,4.29-2.01,5.93c-74.54,29.51-149.06,59.04-223.46,88.91c-1.1,0.44-2.19,0.9-3.33,1.2c-1.64,0.43-2.35,0.02-2.93-1.58
		c-0.2-0.55-0.33-1.14-0.41-1.72C184.38,408.9,183.42,400.78,183.44,392.57z M215.51,376.77c2.13-0.78,3.9-1.37,5.64-2.06
		c28.81-11.45,57.61-22.93,86.42-34.36c20.67-8.2,41.38-16.32,62.07-24.48c1.83-0.72,2-1.34,0.7-2.75c-0.4-0.43-0.88-0.79-1.33-1.17
		c-3.92-3.32-8.07-6.32-12.44-9c-8.23-5.05-17.05-8.75-26.65-9.96c-15.44-1.95-30.69-0.74-45.61,3.83
		c-19.92,6.1-35.72,18.03-48.38,34.33c-8.34,10.74-15.19,22.29-18.41,35.69C216.77,369.97,215.91,373.1,215.51,376.77z"/>
</g>
</svg>
